<?xml version="1.0" encoding="UTF-8" standalone="no"?>
<!-- Generator: Adobe Illustrator 21.0.0, SVG Export Plug-In . SVG Version: 6.00 Build 0)  -->

<svg
   xmlns:dc="http://purl.org/dc/elements/1.1/"
   xmlns:cc="http://creativecommons.org/ns#"
   xmlns:rdf="http://www.w3.org/1999/02/22-rdf-syntax-ns#"
   xmlns:svg="http://www.w3.org/2000/svg"
   xmlns="http://www.w3.org/2000/svg"
   xmlns:xlink="http://www.w3.org/1999/xlink"
   xmlns:sodipodi="http://sodipodi.sourceforge.net/DTD/sodipodi-0.dtd"
   xmlns:inkscape="http://www.inkscape.org/namespaces/inkscape"
   version="1.1"
   id="Layer_1"
   x="0px"
   y="0px"
   viewBox="0 0 356.79504 23.850733"
   xml:space="preserve"
   sodipodi:docname="separator_bottom.svg"
   width="356.79504"
   height="23.850733"
   inkscape:version="0.92.1 r15371"><metadata
     id="metadata155"><rdf:RDF><cc:Work
         rdf:about=""><dc:format>image/svg+xml</dc:format><dc:type
           rdf:resource="http://purl.org/dc/dcmitype/StillImage" /><dc:title></dc:title></cc:Work></rdf:RDF></metadata><defs
     id="defs153"><clipPath
       id="SVGID_2_"><use
         xlink:href="#SVGID_1_"
         style="overflow:visible"
         id="use7"
         x="0"
         y="0"
         width="100%"
         height="100%" /></clipPath><clipPath
       id="clipPath4515"><use
         xlink:href="#SVGID_1_"
         style="overflow:visible"
         id="use4513"
         x="0"
         y="0"
         width="100%"
         height="100%" /></clipPath><clipPath
       id="clipPath4519"><use
         xlink:href="#SVGID_1_"
         style="overflow:visible"
         id="use4517"
         x="0"
         y="0"
         width="100%"
         height="100%" /></clipPath><clipPath
       id="SVGID_4_"><use
         xlink:href="#SVGID_3_"
         style="overflow:visible"
         id="use25"
         x="0"
         y="0"
         width="100%"
         height="100%" /></clipPath><clipPath
       id="clipPath4525"><use
         xlink:href="#SVGID_3_"
         style="overflow:visible"
         id="use4523"
         x="0"
         y="0"
         width="100%"
         height="100%" /></clipPath><clipPath
       id="clipPath4529"><use
         xlink:href="#SVGID_3_"
         style="overflow:visible"
         id="use4527"
         x="0"
         y="0"
         width="100%"
         height="100%" /></clipPath><rect
       id="SVGID_1_"
       x="531.40002"
       y="234.39999"
       width="33.599998"
       height="32.599998" /><polygon
       id="SVGID_3_"
       points="564.7,266.9 564.7,234.3 531.4,234.4 531.4,267 " /></defs><sodipodi:namedview
     pagecolor="#ffffff"
     bordercolor="#666666"
     borderopacity="1"
     objecttolerance="10"
     gridtolerance="10"
     guidetolerance="10"
     inkscape:pageopacity="0"
     inkscape:pageshadow="2"
     inkscape:window-width="1920"
     inkscape:window-height="1017"
     id="namedview151"
     showgrid="false"
     fit-margin-top="0"
     fit-margin-left="0"
     fit-margin-right="0"
     fit-margin-bottom="0"
     inkscape:zoom="6.2945961"
     inkscape:cx="268.78077"
     inkscape:cy="52.068742"
     inkscape:window-x="-8"
     inkscape:window-y="-8"
     inkscape:window-maximized="1"
     inkscape:current-layer="g10"
     showguides="true"
     inkscape:guide-bbox="true" /><style
     type="text/css"
     id="style2">
	.st0{fill:#C99370;}
</style><g
     id="g148"
     transform="rotate(180,404.81068,141.77142)"><g
       id="g6"
       transform="matrix(0.65478996,0,0,0.65478996,189.27336,81.998478)"><rect
         x="407.10001"
         y="298.79999"
         class="st0"
         width="535.70001"
         height="4.0999999"
         id="rect4"
         style="fill:#c99370" /></g><g
       id="g10"
       transform="matrix(0.65478996,0,0,0.65478996,189.27336,81.998478)"><rect
         x="407.10001"
         y="306.20001"
         class="st0"
         width="535.69012"
         height="1.6"
         id="rect8"
         style="fill:#c99370;stroke-width:1.00383973" /></g><g
       id="g14"
       transform="matrix(0.65478996,0,0,0.65478996,189.27336,81.998478)"><path
         class="st0"
         d="m 610.7,302.5 c -0.2,0 -0.4,-0.1 -0.6,-0.2 -0.3,-0.3 -0.3,-0.8 0,-1.2 6.6,-6.6 6.6,-17.4 0,-24 -5.2,-5.2 -13.8,-5.2 -19,0 -4.1,4.1 -4.1,10.8 0,15 3.2,3.2 8.5,3.2 11.7,0 2.5,-2.5 2.5,-6.6 0,-9.2 -0.9,-0.9 -2.2,-1.5 -3.5,-1.5 -1.3,0 -2.6,0.5 -3.5,1.5 -0.7,0.7 -1.1,1.7 -1.1,2.7 0,1 0.4,2 1.1,2.7 1.1,1.1 3,1.1 4.1,0 0.8,-0.8 0.8,-2.2 0,-3.1 -0.3,-0.3 -0.3,-0.8 0,-1.2 0.3,-0.3 0.8,-0.3 1.2,0 1.5,1.5 1.5,3.9 0,5.4 -0.9,0.9 -2,1.3 -3.2,1.3 -1.2,0 -2.4,-0.5 -3.2,-1.3 -1,-1 -1.6,-2.4 -1.6,-3.9 0,-1.5 0.6,-2.8 1.6,-3.9 1.3,-1.3 2.9,-2 4.7,-2 1.8,0 3.5,0.7 4.7,2 3.2,3.2 3.2,8.3 0,11.5 -3.9,3.9 -10.2,3.9 -14.1,0 -4.8,-4.8 -4.8,-12.5 0,-17.3 5.9,-5.9 15.4,-5.9 21.3,0 3.5,3.5 5.5,8.2 5.5,13.2 0,5 -1.9,9.7 -5.5,13.2 -0.2,0.2 -0.4,0.3 -0.6,0.3 z"
         id="path12"
         inkscape:connector-curvature="0"
         style="fill:#c99370" /></g><g
       id="g18"
       transform="matrix(0.65478996,0,0,0.65478996,189.27336,81.998478)"><path
         class="st0"
         d="m 432.3,300.4 c -0.2,0 -0.4,-0.1 -0.6,-0.2 -0.3,-0.3 -0.3,-0.8 0,-1.2 2.1,-2.1 3.3,-5 3.3,-8 0,-3 -1.2,-5.9 -3.3,-8 -1.7,-1.7 -3.9,-2.6 -6.3,-2.6 -2.4,0 -4.6,0.9 -6.3,2.6 -2.7,2.7 -2.7,7.1 0,9.8 2.1,2.1 5.5,2.1 7.6,0 1.6,-1.6 1.6,-4.3 0,-5.9 -1.2,-1.2 -3.3,-1.2 -4.5,0 -0.9,0.9 -0.9,2.4 0,3.3 0.7,0.7 1.8,0.7 2.4,0 0.5,-0.5 0.5,-1.2 0,-1.7 -0.3,-0.3 -0.3,-0.8 0,-1.2 0.3,-0.4 0.8,-0.3 1.2,0 1.1,1.1 1.1,2.9 0,4 -1.3,1.3 -3.5,1.3 -4.8,0 -1.6,-1.6 -1.6,-4.1 0,-5.7 0.9,-0.9 2.1,-1.4 3.4,-1.4 1.3,0 2.5,0.5 3.4,1.4 2.3,2.3 2.3,5.9 0,8.2 -2.7,2.7 -7.2,2.7 -10,0 -3.4,-3.4 -3.4,-8.8 0,-12.2 2,-2 4.6,-3.1 7.5,-3.1 2.8,0 5.5,1.1 7.5,3.1 2.5,2.5 3.8,5.7 3.8,9.2 0,3.5 -1.4,6.7 -3.8,9.2 -0.1,0.3 -0.3,0.4 -0.5,0.4 z"
         id="path16"
         inkscape:connector-curvature="0"
         style="fill:#c99370" /></g><g
       id="g22"
       transform="matrix(0.65478996,0,0,0.65478996,189.27336,81.998478)"><path
         class="st0"
         d="m 657.5,299.4 c -0.2,0 -0.3,0 -0.4,-0.1 L 632,283.1 h -17.1 c -0.5,0 -0.8,-0.4 -0.8,-0.8 0,-0.4 0.4,-0.8 0.8,-0.8 h 17.6 L 658,298 c 0.4,0.2 0.5,0.8 0.2,1.1 -0.2,0.2 -0.4,0.3 -0.7,0.3 z"
         id="path20"
         inkscape:connector-curvature="0"
         style="fill:#c99370" /></g><g
       id="g26"
       transform="matrix(0.65478996,0,0,0.65478996,189.27336,81.998478)"><path
         class="st0"
         d="m 499.3,299.4 c -0.3,0 -0.5,-0.1 -0.7,-0.4 -0.2,-0.4 -0.1,-0.9 0.2,-1.1 L 532.6,276 h 56.8 c 0.5,0 0.8,0.4 0.8,0.8 0,0.4 -0.4,0.8 -0.8,0.8 h -56.3 l -33.4,21.6 c -0.1,0.2 -0.2,0.2 -0.4,0.2 z"
         id="path24"
         inkscape:connector-curvature="0"
         style="fill:#c99370" /></g><g
       id="g30"
       transform="matrix(0.65478996,0,0,0.65478996,189.27336,81.998478)"><path
         class="st0"
         d="m 648.9,299.4 c -0.2,0 -0.3,0 -0.4,-0.1 l -25.3,-16.4 c -0.4,-0.2 -0.5,-0.8 -0.2,-1.1 0.2,-0.4 0.8,-0.5 1.1,-0.2 l 25.3,16.4 c 0.4,0.2 0.5,0.8 0.2,1.1 -0.2,0.2 -0.5,0.3 -0.7,0.3 z"
         id="path28"
         inkscape:connector-curvature="0"
         style="fill:#c99370" /></g><g
       id="g34"
       transform="matrix(0.65478996,0,0,0.65478996,189.27336,81.998478)"><polygon
         class="st0"
         points="556.1,299.4 530.9,283.1 522.7,283.1 548,299.4 "
         id="polygon32"
         style="fill:#c99370" /></g><g
       id="g38"
       transform="matrix(0.65478996,0,0,0.65478996,189.27336,81.998478)"><path
         class="st0"
         d="m 559.6,300.7 h -11.7 l 27.8,-18 h 11.7 z m -6.1,-1.6 h 5.7 l 22.7,-14.7 h -5.7 z"
         id="path36"
         inkscape:connector-curvature="0"
         style="fill:#c99370" /></g><g
       id="g42"
       transform="matrix(0.65478996,0,0,0.65478996,189.27336,81.998478)"><path
         class="st0"
         d="m 490.1,300 c -0.3,0 -0.5,-0.1 -0.7,-0.4 -0.2,-0.4 -0.1,-0.9 0.2,-1.1 l 30.3,-19.6 c 0.4,-0.2 0.9,-0.1 1.1,0.2 0.2,0.4 0.1,0.9 -0.2,1.1 l -30.3,19.6 c -0.1,0.2 -0.3,0.2 -0.4,0.2 z"
         id="path40"
         inkscape:connector-curvature="0"
         style="fill:#c99370" /></g><g
       id="g46"
       transform="matrix(0.65478996,0,0,0.65478996,189.27336,81.998478)"><path
         class="st0"
         d="m 481.7,299.7 c -0.3,0 -0.5,-0.1 -0.7,-0.4 -0.2,-0.4 -0.1,-0.9 0.2,-1.1 l 30.3,-19.6 c 0.4,-0.2 0.9,-0.1 1.1,0.2 0.2,0.4 0.1,0.9 -0.2,1.1 l -30.3,19.6 c -0.1,0.2 -0.2,0.2 -0.4,0.2 z"
         id="path44"
         inkscape:connector-curvature="0"
         style="fill:#c99370" /></g><g
       id="g50"
       transform="matrix(0.65478996,0,0,0.65478996,189.27336,81.998478)"><path
         class="st0"
         d="m 473.1,299.7 c -0.3,0 -0.5,-0.1 -0.7,-0.4 -0.2,-0.4 -0.1,-0.9 0.2,-1.1 l 30.3,-19.6 c 0.4,-0.2 0.9,-0.1 1.1,0.2 0.2,0.4 0.1,0.9 -0.2,1.1 l -30.3,19.6 c -0.1,0.2 -0.3,0.2 -0.4,0.2 z"
         id="path48"
         inkscape:connector-curvature="0"
         style="fill:#c99370" /></g><g
       id="g54"
       transform="matrix(0.65478996,0,0,0.65478996,189.27336,81.998478)"><path
         class="st0"
         d="m 587.2,284.3 h -64.6 c -0.5,0 -0.8,-0.4 -0.8,-0.8 0,-0.5 0.4,-0.8 0.8,-0.8 h 64.6 c 0.5,0 0.8,0.4 0.8,0.8 0,0.5 -0.3,0.8 -0.8,0.8 z"
         id="path52"
         inkscape:connector-curvature="0"
         style="fill:#c99370" /></g><g
       id="g58"
       transform="matrix(0.65478996,0,0,0.65478996,189.27336,81.998478)"><path
         class="st0"
         d="m 432.5,300.1 c -0.3,0 -0.5,-0.1 -0.7,-0.4 -0.3,-0.4 -0.2,-0.9 0.2,-1.1 l 14.5,-10.1 c 9.8,-6.8 21.3,-10.4 33.2,-10.4 h 48.9 c 0.5,0 0.8,0.4 0.8,0.8 0,0.5 -0.4,0.8 -0.8,0.8 h -48.9 c -11.6,0 -22.7,3.5 -32.3,10.1 L 433,300 c -0.1,0.1 -0.3,0.1 -0.5,0.1 z"
         id="path56"
         inkscape:connector-curvature="0"
         style="fill:#c99370" /></g><g
       id="g62"
       transform="matrix(0.65478996,0,0,0.65478996,189.27336,81.998478)"><path
         class="st0"
         d="m 488.8,289.6 h -41.2 c -0.5,0 -0.8,-0.4 -0.8,-0.8 0,-0.4 0.4,-0.8 0.8,-0.8 h 41.2 c 0.5,0 0.8,0.4 0.8,0.8 0,0.4 -0.4,0.8 -0.8,0.8 z"
         id="path60"
         inkscape:connector-curvature="0"
         style="fill:#c99370" /></g><g
       id="g66"
       transform="matrix(0.65478996,0,0,0.65478996,189.27336,81.998478)"><path
         class="st0"
         d="m 416.8,291.3 h -9.7 c -0.5,0 -0.8,-0.4 -0.8,-0.8 0,-0.5 0.4,-0.8 0.8,-0.8 h 9.7 c 0.5,0 0.8,0.4 0.8,0.8 0,0.4 -0.4,0.8 -0.8,0.8 z"
         id="path64"
         inkscape:connector-curvature="0"
         style="fill:#c99370" /></g><g
       id="g70"
       transform="matrix(0.65478996,0,0,0.65478996,189.27336,81.998478)"><path
         class="st0"
         d="m 422.7,296 h -19.4 c -0.5,0 -0.8,-0.4 -0.8,-0.8 0,-0.4 0.4,-0.8 0.8,-0.8 h 19.4 c 0.5,0 0.8,0.4 0.8,0.8 0,0.4 -0.3,0.8 -0.8,0.8 z"
         id="path68"
         inkscape:connector-curvature="0"
         style="fill:#c99370" /></g><g
       id="g124"><g
         id="g74"
         transform="matrix(0.65478996,0,0,0.65478996,189.27336,81.998478)"><path
           class="st0"
           d="m 739.1,302.5 c -0.2,0 -0.4,-0.1 -0.6,-0.2 -3.5,-3.5 -5.5,-8.2 -5.5,-13.2 0,-5 1.9,-9.7 5.5,-13.2 5.9,-5.9 15.4,-5.9 21.3,0 4.8,4.8 4.8,12.5 0,17.3 -3.9,3.9 -10.2,3.9 -14.1,0 -1.5,-1.5 -2.4,-3.6 -2.4,-5.7 0,-2.1 0.8,-4.2 2.4,-5.7 1.3,-1.3 2.9,-2 4.7,-2 1.8,0 3.5,0.7 4.7,2 1,1 1.6,2.4 1.6,3.9 0,1.5 -0.6,2.8 -1.6,3.9 -1.8,1.8 -4.7,1.8 -6.4,0 -1.5,-1.5 -1.5,-3.9 0,-5.4 0.3,-0.3 0.8,-0.3 1.2,0 0.3,0.3 0.3,0.8 0,1.2 -0.8,0.8 -0.8,2.2 0,3.1 1.1,1.1 3,1.1 4.1,0 0.7,-0.7 1.1,-1.7 1.1,-2.7 0,-1 -0.4,-2 -1.1,-2.7 -0.9,-0.9 -2.2,-1.5 -3.5,-1.5 -1.3,0 -2.6,0.5 -3.5,1.5 -1.2,1.2 -1.9,2.8 -1.9,4.6 0,1.8 0.7,3.4 1.9,4.6 3.2,3.2 8.5,3.2 11.7,0 4.1,-4.1 4.1,-10.8 0,-15 -2.5,-2.5 -5.9,-3.9 -9.5,-3.9 -3.6,0 -7,1.4 -9.5,3.9 -6.6,6.6 -6.6,17.4 0,24 0.3,0.3 0.3,0.8 0,1.2 -0.1,-0.1 -0.4,0 -0.6,0 z"
           id="path72"
           inkscape:connector-curvature="0"
           style="fill:#c99370" /></g><g
         id="g78"
         transform="matrix(0.65478996,0,0,0.65478996,189.27336,81.998478)"><path
           class="st0"
           d="m 917.5,300.4 c -0.2,0 -0.4,-0.1 -0.6,-0.2 -2.5,-2.5 -3.8,-5.7 -3.8,-9.2 0,-3.5 1.4,-6.7 3.8,-9.2 2,-2 4.6,-3.1 7.5,-3.1 2.8,0 5.5,1.1 7.5,3.1 3.4,3.4 3.4,8.8 0,12.2 -2.7,2.7 -7.2,2.7 -10,0 -2.3,-2.3 -2.3,-5.9 0,-8.2 1.9,-1.9 4.9,-1.9 6.8,0 1.6,1.6 1.6,4.1 0,5.7 -1.3,1.3 -3.5,1.3 -4.8,0 -0.5,-0.5 -0.8,-1.3 -0.8,-2 0,-0.8 0.3,-1.5 0.8,-2 0.3,-0.3 0.8,-0.3 1.2,0 0.3,0.3 0.3,0.8 0,1.2 -0.2,0.2 -0.4,0.5 -0.4,0.9 0,0.4 0.1,0.6 0.4,0.9 0.7,0.7 1.8,0.7 2.4,0 0.9,-0.9 0.9,-2.4 0,-3.3 -1.2,-1.2 -3.3,-1.2 -4.5,0 -1.6,1.6 -1.6,4.3 0,5.9 1,1 2.4,1.6 3.8,1.6 1.4,0 2.8,-0.6 3.8,-1.6 2.7,-2.7 2.7,-7.1 0,-9.8 -1.7,-1.7 -3.9,-2.6 -6.3,-2.6 -2.4,0 -4.6,0.9 -6.3,2.6 -2.1,2.1 -3.3,5 -3.3,8 0,3 1.2,5.9 3.3,8 0.3,0.3 0.3,0.8 0,1.2 0,-0.2 -0.3,-0.1 -0.5,-0.1 z"
           id="path76"
           inkscape:connector-curvature="0"
           style="fill:#c99370" /></g><g
         id="g82"
         transform="matrix(0.65478996,0,0,0.65478996,189.27336,81.998478)"><path
           class="st0"
           d="m 692.3,299.4 c -0.3,0 -0.5,-0.1 -0.7,-0.4 -0.2,-0.4 -0.1,-0.9 0.2,-1.1 l 25.5,-16.5 H 735 c 0.5,0 0.8,0.4 0.8,0.8 0,0.4 -0.4,0.8 -0.8,0.8 h -17.1 l -25.1,16.3 c -0.2,0.1 -0.3,0.1 -0.5,0.1 z"
           id="path80"
           inkscape:connector-curvature="0"
           style="fill:#c99370" /></g><g
         id="g86"
         transform="matrix(0.65478996,0,0,0.65478996,189.27336,81.998478)"><path
           class="st0"
           d="m 850.5,299.4 c -0.2,0 -0.3,0 -0.4,-0.1 l -33.4,-21.6 h -56.3 c -0.5,0 -0.8,-0.4 -0.8,-0.8 0,-0.4 0.4,-0.8 0.8,-0.8 h 56.8 L 851,298 c 0.4,0.2 0.5,0.8 0.2,1.1 -0.2,0.2 -0.4,0.3 -0.7,0.3 z"
           id="path84"
           inkscape:connector-curvature="0"
           style="fill:#c99370" /></g><g
         id="g90"
         transform="matrix(0.65478996,0,0,0.65478996,189.27336,81.998478)"><path
           class="st0"
           d="m 701,299.4 c -0.3,0 -0.5,-0.1 -0.7,-0.4 -0.2,-0.4 -0.1,-0.9 0.2,-1.1 l 25.3,-16.4 c 0.4,-0.2 0.9,-0.1 1.1,0.2 0.2,0.4 0.1,0.9 -0.2,1.1 l -25.3,16.4 c -0.1,0.2 -0.3,0.2 -0.4,0.2 z"
           id="path88"
           inkscape:connector-curvature="0"
           style="fill:#c99370" /></g><g
         id="g94"
         transform="matrix(0.65478996,0,0,0.65478996,189.27336,81.998478)"><polygon
           class="st0"
           points="793.7,299.4 819,283.1 827.1,283.1 801.8,299.4 "
           id="polygon92"
           style="fill:#c99370" /></g><g
         id="g98"
         transform="matrix(0.65478996,0,0,0.65478996,189.27336,81.998478)"><path
           class="st0"
           d="m 801.9,300.7 h -11.7 l -27.8,-18 h 11.7 z m -11.2,-1.6 h 5.7 L 773.7,284.4 H 768 Z"
           id="path96"
           inkscape:connector-curvature="0"
           style="fill:#c99370" /></g><g
         id="g102"
         transform="matrix(0.65478996,0,0,0.65478996,189.27336,81.998478)"><path
           class="st0"
           d="m 859.7,300 c -0.2,0 -0.3,0 -0.4,-0.1 L 829,280.2 c -0.4,-0.2 -0.5,-0.8 -0.2,-1.1 0.2,-0.4 0.8,-0.5 1.1,-0.2 l 30.3,19.6 c 0.4,0.2 0.5,0.8 0.2,1.1 -0.1,0.3 -0.4,0.4 -0.7,0.4 z"
           id="path100"
           inkscape:connector-curvature="0"
           style="fill:#c99370" /></g><g
         id="g106"
         transform="matrix(0.65478996,0,0,0.65478996,189.27336,81.998478)"><path
           class="st0"
           d="m 868.1,299.7 c -0.2,0 -0.3,0 -0.4,-0.1 L 837.4,280 c -0.4,-0.2 -0.5,-0.8 -0.2,-1.1 0.2,-0.4 0.8,-0.5 1.1,-0.2 l 30.3,19.6 c 0.4,0.2 0.5,0.8 0.2,1.1 -0.2,0.2 -0.4,0.3 -0.7,0.3 z"
           id="path104"
           inkscape:connector-curvature="0"
           style="fill:#c99370" /></g><g
         id="g110"
         transform="matrix(0.65478996,0,0,0.65478996,189.27336,81.998478)"><path
           class="st0"
           d="m 876.8,299.7 c -0.2,0 -0.3,0 -0.4,-0.1 L 846.1,280 c -0.4,-0.2 -0.5,-0.8 -0.2,-1.1 0.2,-0.4 0.8,-0.5 1.1,-0.2 l 30.3,19.6 c 0.4,0.2 0.5,0.8 0.2,1.1 -0.2,0.2 -0.5,0.3 -0.7,0.3 z"
           id="path108"
           inkscape:connector-curvature="0"
           style="fill:#c99370" /></g><g
         id="g114"
         transform="matrix(0.65478996,0,0,0.65478996,189.27336,81.998478)"><path
           class="st0"
           d="m 827.2,284.3 h -64.6 c -0.5,0 -0.8,-0.4 -0.8,-0.8 0,-0.5 0.4,-0.8 0.8,-0.8 h 64.6 c 0.5,0 0.8,0.4 0.8,0.8 0,0.5 -0.3,0.8 -0.8,0.8 z"
           id="path112"
           inkscape:connector-curvature="0"
           style="fill:#c99370" /></g><g
         id="g118"
         transform="matrix(0.65478996,0,0,0.65478996,189.27336,81.998478)"><path
           class="st0"
           d="m 917.3,300.1 c -0.2,0 -0.3,0 -0.5,-0.1 l -14.5,-10.1 c -9.5,-6.6 -20.7,-10.1 -32.3,-10.1 h -48.9 c -0.5,0 -0.8,-0.4 -0.8,-0.8 0,-0.5 0.4,-0.8 0.8,-0.8 H 870 c 11.9,0 23.4,3.6 33.2,10.4 l 14.5,10.1 c 0.4,0.3 0.5,0.8 0.2,1.1 -0.1,0.2 -0.3,0.3 -0.6,0.3 z"
           id="path116"
           inkscape:connector-curvature="0"
           style="fill:#c99370" /></g><g
         id="g122"
         transform="matrix(0.65478996,0,0,0.65478996,189.27336,81.998478)"><path
           class="st0"
           d="M 902.2,289.6 H 861 c -0.5,0 -0.8,-0.4 -0.8,-0.8 0,-0.4 0.4,-0.8 0.8,-0.8 h 41.2 c 0.5,0 0.8,0.4 0.8,0.8 0,0.4 -0.3,0.8 -0.8,0.8 z"
           id="path120"
           inkscape:connector-curvature="0"
           style="fill:#c99370" /></g></g><g
       id="g128"
       transform="matrix(0.65478996,0,0,0.65478996,189.27336,81.998478)"><path
         class="st0"
         d="m 942.8,291.3 h -9.7 c -0.5,0 -0.8,-0.4 -0.8,-0.8 0,-0.5 0.4,-0.8 0.8,-0.8 h 9.7 c 0.5,0 0.8,0.4 0.8,0.8 0,0.4 -0.4,0.8 -0.8,0.8 z"
         id="path126"
         inkscape:connector-curvature="0"
         style="fill:#c99370" /></g><g
       id="g132"
       transform="matrix(0.65478996,0,0,0.65478996,189.27336,81.998478)"><path
         class="st0"
         d="m 946.6,296 h -19.5 c -0.5,0 -0.8,-0.4 -0.8,-0.8 0,-0.4 0.4,-0.8 0.8,-0.8 h 19.5 c 0.5,0 0.8,0.4 0.8,0.8 0,0.4 -0.4,0.8 -0.8,0.8 z"
         id="path130"
         inkscape:connector-curvature="0"
         style="fill:#c99370" /></g><g
       id="g146"
       transform="matrix(0.65478996,0,0,0.65478996,189.27336,81.998478)"><g
         id="g136"><path
           class="st0"
           d="m 692.6,300.8 c -0.5,0 -0.8,-0.4 -0.8,-0.8 0,-9.3 -7.6,-16.9 -16.9,-16.9 -9.3,0 -16.9,7.6 -16.9,16.9 0,0.5 -0.4,0.8 -0.8,0.8 -0.5,0 -0.8,-0.4 -0.8,-0.8 0,-10.2 8.3,-18.5 18.5,-18.5 10.2,0 18.5,8.3 18.5,18.5 0,0.4 -0.3,0.8 -0.8,0.8 z"
           id="path134"
           inkscape:connector-curvature="0"
           style="fill:#c99370" /></g><g
         id="g140"><path
           class="st0"
           d="m 688.1,300.6 c -0.5,0 -0.8,-0.4 -0.8,-0.8 0,-6.8 -5.5,-12.3 -12.3,-12.3 -6.8,0 -12.3,5.5 -12.3,12.3 0,0.5 -0.4,0.8 -0.8,0.8 -0.5,0 -0.8,-0.4 -0.8,-0.8 0,-7.7 6.3,-14 14,-14 7.7,0 14,6.3 14,14 -0.2,0.4 -0.6,0.8 -1,0.8 z"
           id="path138"
           inkscape:connector-curvature="0"
           style="fill:#c99370" /></g><g
         id="g144"><path
           class="st0"
           d="m 683.6,300.9 c -0.5,0 -0.8,-0.4 -0.8,-0.8 0,-4.3 -3.5,-7.8 -7.8,-7.8 -4.3,0 -7.8,3.5 -7.8,7.8 0,0.5 -0.4,0.8 -0.8,0.8 -0.4,0 -0.8,-0.4 -0.8,-0.8 0,-5.2 4.2,-9.5 9.5,-9.5 5.3,0 9.5,4.2 9.5,9.5 -0.2,0.4 -0.6,0.8 -1,0.8 z"
           id="path142"
           inkscape:connector-curvature="0"
           style="fill:#c99370" /></g></g></g></svg>